<svg width="48" height="48" viewBox="0 0 48 48" fill="none" xmlns="http://www.w3.org/2000/svg">
  <path d="M24 4C12.954 4 4 12.954 4 24C4 35.046 12.954 44 24 44C35.046 44 44 35.046 44 24C44 12.954 35.046 4 24 4ZM24 8C32.837 8 40 15.163 40 24C40 32.837 32.837 40 24 40C15.163 40 8 32.837 8 24C8 15.163 15.163 8 24 8Z" fill="url(#paint0_linear)"/>
  <path d="M24 12C24.8284 12 25.5 12.6716 25.5 13.5V24.5C25.5 25.3284 24.8284 26 24 26C23.1716 26 22.5 25.3284 22.5 24.5V13.5C22.5 12.6716 23.1716 12 24 12Z" fill="url(#paint1_linear)"/>
  <path d="M24 28C24.8284 28 25.5 28.6716 25.5 29.5V34.5C25.5 35.3284 24.8284 36 24 36C23.1716 36 22.5 35.3284 22.5 34.5V29.5C22.5 28.6716 23.1716 28 24 28Z" fill="url(#paint2_linear)"/>
  <defs>
    <linearGradient id="paint0_linear" x1="4" y1="4" x2="44" y2="44" gradientUnits="userSpaceOnUse">
      <stop stop-color="#7B5AF5"/>
      <stop offset="0.5" stop-color="#36BCBA"/>
      <stop offset="1" stop-color="#FF7E47"/>
    </linearGradient>
    <linearGradient id="paint1_linear" x1="22.5" y1="12" x2="25.5" y2="26" gradientUnits="userSpaceOnUse">
      <stop stop-color="#7B5AF5"/>
      <stop offset="1" stop-color="#36BCBA"/>
    </linearGradient>
    <linearGradient id="paint2_linear" x1="22.5" y1="28" x2="25.5" y2="36" gradientUnits="userSpaceOnUse">
      <stop stop-color="#36BCBA"/>
      <stop offset="1" stop-color="#FF7E47"/>
    </linearGradient>
  </defs>
</svg>